<svg width="135" height="162" viewBox="0 0 135 162" fill="none" xmlns="http://www.w3.org/2000/svg">
<circle cx="67.5" cy="67.5" r="58" stroke="#D1D1D1"/>
<circle cx="67.5" cy="154.5" r="7.5" fill="#159822"/>
<path d="M132.5 67.5C132.5 103.399 103.399 132.5 67.5 132.5C31.6015 132.5 2.5 103.399 2.5 67.5C2.5 31.6015 31.6015 2.5 67.5 2.5C103.399 2.5 132.5 31.6015 132.5 67.5ZM67.5 134.5C104.503 134.5 134.5 104.503 134.5 67.5C134.5 30.4969 104.503 0.5 67.5 0.5C30.4969 0.5 0.5 30.4969 0.5 67.5C0.5 104.503 30.4969 134.5 67.5 134.5Z" fill="#159822" stroke="#159822"/>
<path fill-rule="evenodd" clip-rule="evenodd" d="M66 148L66 134L69 134L69 148L66 148Z" fill="#159822"/>
<g clip-path="url(#clip0)">
<path d="M72.2042 54.8154H45.9564C45.3901 54.8154 44.9312 55.2745 44.9312 55.8407C44.9312 56.407 45.3901 56.8659 45.9564 56.8659H72.2043C72.7706 56.8659 73.2296 56.4068 73.2296 55.8407C73.2296 55.2745 72.7706 54.8154 72.2042 54.8154Z" fill="#159822"/>
<path d="M72.2042 62.02H45.9564C45.3901 62.02 44.9312 62.4791 44.9312 63.0453C44.9312 63.6114 45.3901 64.0705 45.9564 64.0705H72.2043C72.7706 64.0705 73.2296 63.6114 73.2296 63.0453C73.2296 62.4791 72.7706 62.02 72.2042 62.02Z" fill="#159822"/>
<path d="M72.2042 69.2241H45.9564C45.3901 69.2241 44.9312 69.6832 44.9312 70.2494C44.9312 70.8155 45.3901 71.2746 45.9564 71.2746H72.2043C72.7706 71.2746 73.2296 70.8155 73.2296 70.2494C73.2296 69.6832 72.7706 69.2241 72.2042 69.2241Z" fill="#159822"/>
<path d="M73.2296 77.454C73.2296 76.8877 72.7706 76.4287 72.2043 76.4287H45.9564C45.3901 76.4287 44.9312 76.8878 44.9312 77.454C44.9312 78.0201 45.3901 78.4792 45.9564 78.4792H72.2043C72.7706 78.4792 73.2296 78.0203 73.2296 77.454Z" fill="#159822"/>
<path d="M45.9564 86.9873C45.3901 86.9873 44.9312 87.4464 44.9312 88.0126C44.9312 88.5787 45.3901 89.0378 45.9564 89.0378H59.1139C59.6802 89.0378 60.1392 88.5787 60.1392 88.0126C60.1392 87.4464 59.6802 86.9873 59.1139 86.9873H45.9564Z" fill="#159822"/>
<path d="M84.0196 42.6948V39.3679C84.0196 38.1005 82.9886 37.0693 81.7211 37.0693H60.6709C59.4036 37.0693 58.3726 38.1005 58.3726 39.3679V42.6948C58.3726 43.9621 59.4036 44.9931 60.6709 44.9931H62.4486C63.0148 44.9931 63.4738 44.534 63.4738 43.9679C63.4738 43.4016 63.0148 42.9426 62.4486 42.9426H60.6709C60.5344 42.9426 60.4232 42.8315 60.4232 42.6949V39.3679C60.4232 39.2313 60.5344 39.12 60.6709 39.12H81.7211C81.8578 39.12 81.969 39.2311 81.969 39.3679V42.6948C81.969 42.8313 81.8578 42.9425 81.7211 42.9425H67.2419C66.6756 42.9425 66.2167 43.4016 66.2167 43.9678C66.2167 44.534 66.6756 44.993 67.2419 44.993H81.7212C82.9886 44.9933 84.0196 43.9621 84.0196 42.6948Z" fill="#159822"/>
<path d="M91.6859 92.5209C91.1196 92.5209 90.6606 92.98 90.6606 93.5462V94.9269C90.6606 96.5934 89.3048 97.9494 87.6381 97.9494H42.28C40.6135 97.9494 39.2575 96.5935 39.2575 94.9269V45.6445C39.2575 45.4226 39.2835 45.2049 39.3299 44.9931H48.6654C50.6145 44.9931 52.2002 43.4075 52.2002 41.4584V32.123C52.4119 32.0766 52.6295 32.0506 52.8513 32.0506H87.6379C89.3045 32.0506 90.6605 33.4065 90.6605 35.0731V48.7234C90.6605 49.2896 91.1195 49.7486 91.6858 49.7486C92.252 49.7486 92.711 49.2895 92.711 48.7234V35.0729C92.7112 32.2758 90.4353 30 87.6381 30H52.8515C51.4965 30 50.2224 30.5277 49.2643 31.4859L38.6928 42.0574C37.7346 43.0155 37.207 44.2894 37.207 45.6446V94.927C37.207 97.7243 39.4827 100 42.28 100H87.6381C90.4353 100 92.7112 97.7242 92.7112 94.927V93.5463C92.7112 92.98 92.2522 92.5209 91.6859 92.5209ZM50.1496 33.5005V41.4584C50.1496 42.2768 49.4838 42.9426 48.6654 42.9426H40.7076L50.1496 33.5005Z" fill="#159822"/>
<path d="M105.729 66.6405C106.448 65.5841 106.635 64.281 106.24 63.0653C105.845 61.8496 104.928 60.9049 103.725 60.4734C102.927 60.1871 102.394 59.4543 102.369 58.6066C102.33 57.329 101.715 56.1653 100.68 55.4138C99.6464 54.6626 98.3492 54.4371 97.1226 54.7951C96.308 55.0327 95.4471 54.7527 94.9281 54.0821C94.1459 53.071 92.9641 52.4912 91.6858 52.4912C90.4076 52.4912 89.2257 53.071 88.4434 54.0821C87.9244 54.7528 87.0629 55.0324 86.249 54.7951C85.0223 54.4369 83.7252 54.6626 82.6909 55.4138C81.6568 56.1653 81.0417 57.3289 81.0029 58.6065C80.9773 59.4542 80.4449 60.1868 79.6466 60.4733C78.4435 60.9047 77.5268 61.8496 77.1319 63.0652C76.737 64.2809 76.9232 65.5841 77.6429 66.6404C78.1203 67.3413 78.1203 68.247 77.6429 68.9478C76.9232 70.0042 76.737 71.3073 77.1319 72.523C77.5268 73.7387 78.4435 74.6834 79.6466 75.115C80.4449 75.4014 80.9774 76.1341 81.0029 76.9818C81.0386 78.157 81.5771 79.2613 82.4808 80.0112C83.077 80.5061 83.7933 80.8158 84.5429 80.9193V90.2542C84.5429 91.0418 84.9702 91.7698 85.6577 92.1539C86.3445 92.5376 87.1887 92.5205 87.8599 92.1073L91.6203 89.7923C91.6816 89.7545 91.7181 89.7715 91.7518 89.7923L95.512 92.1073C96.1829 92.5201 97.0269 92.5379 97.7143 92.1537C98.402 91.7696 98.8291 91.0415 98.8291 90.254V80.919C99.5784 80.8156 100.295 80.506 100.891 80.0112C101.795 79.2613 102.333 78.1572 102.369 76.9816C102.395 76.134 102.927 75.4012 103.725 75.1149C104.929 74.6834 105.845 73.7385 106.24 72.5228C106.635 71.3071 106.449 70.0041 105.729 68.9476C105.251 68.2471 105.251 67.3415 105.729 66.6405ZM96.5868 90.3611L92.8264 88.0462C92.1274 87.6159 91.2447 87.6152 90.545 88.0462L86.7847 90.3609C86.6991 90.413 86.5934 90.353 86.5934 90.254V80.7246C87.2984 80.643 87.9973 80.9298 88.4434 81.5063C89.2258 82.5172 90.4076 83.0971 91.6859 83.0971C92.9641 83.0971 94.1459 82.5172 94.9281 81.5063C95.3743 80.9297 96.0734 80.643 96.7782 80.7246V90.254C96.7782 90.3537 96.6711 90.4132 96.5868 90.3611ZM104.034 70.1026C104.394 70.6306 104.487 71.2818 104.289 71.8894C104.092 72.497 103.634 72.9692 103.033 73.185C101.435 73.7578 100.37 75.2239 100.319 76.9198C100.301 77.5161 100.039 78.0535 99.5812 78.4333C99.0667 78.8603 98.37 79.0213 97.6971 78.825C96.0683 78.3498 94.3447 78.9098 93.3062 80.2515C92.9153 80.7567 92.3246 81.0466 91.6857 81.0466C91.0469 81.0466 90.4562 80.7569 90.065 80.2515C89.2722 79.2267 88.0798 78.658 86.8353 78.658C86.45 78.658 86.0595 78.7125 85.6745 78.8249C84.9951 79.0229 84.3004 78.8569 83.79 78.4332C83.3324 78.0534 83.0703 77.5159 83.0524 76.9198C83.001 75.2239 81.936 73.7578 80.3387 73.1848C79.7374 72.9691 79.2794 72.497 79.0818 71.8894C78.8844 71.2818 78.9774 70.6305 79.3372 70.1025C80.2925 68.7002 80.2925 66.8882 79.3372 65.4859C78.9774 64.9579 78.8844 64.3066 79.0818 63.6989C79.2793 63.0913 79.7374 62.6191 80.3387 62.4035C81.936 61.8305 83.001 60.3644 83.0524 58.6684C83.0717 58.0298 83.379 57.4482 83.896 57.0728C84.4126 56.6972 85.0607 56.5846 85.6744 56.7634C87.3027 57.2388 89.0268 56.6786 90.065 55.3369C90.456 54.8316 91.0466 54.5417 91.6857 54.5417C92.3246 54.5417 92.9152 54.8314 93.3062 55.3367C94.3446 56.6786 96.0678 57.2386 97.6969 56.7634C98.3102 56.5843 98.9583 56.6971 99.4752 57.0727C99.9922 57.4481 100.3 58.0298 100.319 58.6683C100.37 60.3643 101.435 61.8305 103.033 62.4033C103.634 62.6189 104.092 63.0912 104.289 63.6987C104.487 64.3063 104.394 64.9578 104.034 65.4856C103.079 66.8881 103.079 68.7003 104.034 70.1026Z" fill="#159822"/>
<path d="M91.6861 59.2007C86.9477 59.2007 83.0928 63.0556 83.0928 67.794C83.0928 72.5324 86.9477 76.3873 91.6861 76.3873C96.4244 76.3873 100.279 72.5324 100.279 67.794C100.279 63.0556 96.4244 59.2007 91.6861 59.2007ZM91.6861 74.3368C88.0784 74.3368 85.1433 71.4017 85.1433 67.7941C85.1433 64.1865 88.0784 61.2513 91.6861 61.2513C95.2938 61.2513 98.2288 64.1864 98.2288 67.7941C98.2288 71.4019 95.2937 74.3368 91.6861 74.3368Z" fill="#159822"/>
</g>
<defs>
<clipPath id="clip0">
<rect width="70" height="70" fill="white" transform="translate(36.8252 30)"/>
</clipPath>
</defs>
</svg>
