<svg width="80" height="80" viewBox="0 0 80 80" fill="none" xmlns="http://www.w3.org/2000/svg">
<circle cx="40.0002" cy="40" r="37.9436" fill="white" stroke="#D1D1D1"/>
<circle cx="40.0002" cy="40" r="33.3186" stroke="#D1D1D1"/>
<path d="M77.3652 40C77.3652 60.6362 60.6362 77.3652 40 77.3652C19.3637 77.3652 2.63474 60.6362 2.63474 40C2.63474 19.3637 19.3637 2.63474 40 2.63474C60.6362 2.63474 77.3652 19.3637 77.3652 40ZM40 78.9433C61.5078 78.9433 78.9433 61.5078 78.9433 40C78.9433 18.4922 61.5078 1.05664 40 1.05664C18.4922 1.05664 1.05664 18.4922 1.05664 40C1.05664 61.5078 18.4922 78.9433 40 78.9433Z" fill="#159822" stroke="#159822"/>
<path d="M54.3308 57.0646L52.6132 51.9111C52.013 50.1119 50.4816 48.7838 48.6149 48.444L43.6565 47.5418V47.1575C44.5194 46.6567 45.2703 45.9868 45.8683 45.1936H47.3662C48.5934 45.1936 49.592 44.195 49.592 42.9678V34.0646C49.592 28.7464 45.2651 24.4194 39.9469 24.4194C34.6287 24.4194 30.3017 28.7464 30.3017 34.0646V39.2581C30.3017 40.6886 31.3189 41.8853 32.6677 42.1643C33.084 44.2966 34.4165 46.101 36.2372 47.1575V47.5418L31.2781 48.444C29.4121 48.7838 27.88 50.1119 27.2805 51.9111L26.9838 52.8022L24.4567 50.2751C24.1674 49.9858 24.1674 49.5147 24.4567 49.2253L27.3874 46.2954L21.8867 40.7947L18.5747 44.1067C17.5938 45.0875 17.0537 46.3918 17.0537 47.7793C17.0537 49.1667 17.5938 50.4703 18.5747 51.4511L28.6019 61.4784C29.5828 62.4592 30.8871 63.0001 32.2745 63.0001C33.6619 63.0001 34.9655 62.4592 35.9234 61.5006L39.5373 58.1894L38.4103 57.0646H54.3308ZM48.1082 42.9678C48.1082 43.3774 47.775 43.7098 47.3662 43.7098H46.7423C46.9574 43.2193 47.1206 42.7022 47.226 42.1643C47.5435 42.0983 47.8359 41.9721 48.1082 41.8134V42.9678ZM47.3662 40.5358V37.9805C47.8077 38.238 48.1082 38.7113 48.1082 39.2581C48.1082 39.8049 47.8077 40.2783 47.3662 40.5358ZM32.5275 40.5358C32.0861 40.2783 31.7856 39.8049 31.7856 39.2581C31.7856 38.7113 32.0861 38.238 32.5275 37.9805V40.5358ZM32.5275 35.5485V36.3958C32.2634 36.4648 32.0156 36.5686 31.7856 36.7029V34.0646C31.7856 29.5648 35.447 25.9033 39.9469 25.9033C44.4467 25.9033 48.1082 29.5648 48.1082 34.0646V36.7029C47.8782 36.5686 47.6304 36.464 47.3662 36.3958V35.5485H46.6243C44.4304 35.5485 42.3678 34.6938 40.8157 33.1424L39.9469 32.2736L39.0781 33.1424C37.5259 34.6938 35.4634 35.5485 33.2695 35.5485H32.5275ZM34.0114 40.742V37.0041C36.2394 36.8365 38.3168 35.9172 39.9469 34.3673C41.5769 35.9172 43.6543 36.8372 45.8824 37.0041V40.742C45.8824 41.8238 45.5871 42.8358 45.0796 43.7098H39.9469V45.1936H43.8598C42.8137 46.1144 41.4463 46.6775 39.9469 46.6775C36.6742 46.6775 34.0114 44.0147 34.0114 40.742ZM42.1727 47.8193V47.8542L39.9469 50.08L37.7211 47.8542V47.8193C38.4244 48.0404 39.1715 48.1614 39.9469 48.1614C40.7222 48.1614 41.4693 48.0404 42.1727 47.8193ZM28.6873 52.38C29.1154 51.095 30.2097 50.146 31.543 49.9027L36.7291 48.9604L39.9469 52.1782L43.1639 48.9612L48.3493 49.9034C49.6825 50.1468 50.7769 51.095 51.205 52.3808L52.2726 55.5807H36.9265L34.0366 52.6909L30.8255 55.5956C30.5458 55.8767 30.0569 55.8767 29.7764 55.5956L28.156 53.9752L28.6873 52.38ZM21.8859 42.8929L25.2885 46.2954L24.4827 47.1011L21.0802 43.6986L21.8859 42.8929ZM34.8958 60.4307C34.1954 61.1297 33.2635 61.5162 32.273 61.5162C31.2825 61.5162 30.3507 61.1297 29.6495 60.4293L19.6223 50.4028C18.9219 49.7024 18.5361 48.7705 18.5361 47.78C18.5361 46.7888 18.9219 45.8569 19.6223 45.1565L20.0304 44.7485L23.4329 48.151L23.4062 48.1777C22.5388 49.0457 22.5388 50.4577 23.4062 51.3257L28.7266 56.6461C29.1473 57.0661 29.7059 57.2983 30.301 57.2983C30.896 57.2983 31.4547 57.0668 31.8479 56.6721L31.9035 56.6224L35.3216 60.0405L34.8958 60.4307ZM36.4167 59.0359L33.0061 55.6252L33.9862 54.7394L37.3909 58.1441L36.4167 59.0359Z" fill="#159822"/>
<path d="M60.7213 17H50.3342C49.107 17 48.1084 17.9986 48.1084 19.2258V25.1613C48.1084 26.3885 49.107 27.3871 50.3342 27.3871H52.3159L51.5488 31.8617L58.7084 27.3871H60.7213C61.9485 27.3871 62.9471 26.3885 62.9471 25.1613V19.2258C62.9471 17.9986 61.9485 17 60.7213 17ZM61.4632 25.1613C61.4632 25.5701 61.1301 25.9032 60.7213 25.9032H58.2826L53.5705 28.848L54.0758 25.9032H50.3342C49.9254 25.9032 49.5923 25.5701 49.5923 25.1613V19.2258C49.5923 18.817 49.9254 18.4839 50.3342 18.4839H60.7213C61.1301 18.4839 61.4632 18.817 61.4632 19.2258V25.1613Z" fill="#159822"/>
<path d="M59.9794 19.9678H51.0762V21.4516H59.9794V19.9678Z" fill="#159822"/>
<path d="M57.0117 22.9355H51.0762V24.4194H57.0117V22.9355Z" fill="#159822"/>
<path d="M59.9795 22.9355H58.4956V24.4194H59.9795V22.9355Z" fill="#159822"/>
<path d="M39.9471 19.2258C30.253 19.2258 21.9025 25.9314 19.7316 35.285L18.3256 32.9412L17.0532 33.7047L19.6611 38.0502L24.0066 35.4423L23.2432 34.1699L21.2325 35.3763C23.3352 26.8195 31.0298 20.7097 39.9471 20.7097C41.8962 20.7097 43.8193 20.9991 45.663 21.5703L46.1022 20.1532C44.1161 19.5374 42.0453 19.2258 39.9471 19.2258Z" fill="#159822"/>
<path d="M62.5866 33.428L58.2411 30.8201L55.634 35.1663L56.9064 35.9298L58.2048 33.7656C58.8881 35.7651 59.2375 37.8566 59.2375 40C59.2375 44.4123 57.7092 48.7259 54.9351 52.1455L56.0873 53.0804C59.0758 49.3974 60.7214 44.7514 60.7214 40C60.7214 37.7305 60.3556 35.5143 59.6426 33.3924L61.8232 34.7004L62.5866 33.428Z" fill="#159822"/>
</svg>
