<svg width="135" height="162" viewBox="0 0 135 162" fill="none" xmlns="http://www.w3.org/2000/svg">
<circle cx="67.5" cy="67.5" r="58" stroke="#D1D1D1"/>
<circle cx="67.5" cy="154.5" r="7.5" fill="#159822"/>
<path d="M132.5 67.5C132.5 103.399 103.399 132.5 67.5 132.5C31.6015 132.5 2.5 103.399 2.5 67.5C2.5 31.6015 31.6015 2.5 67.5 2.5C103.399 2.5 132.5 31.6015 132.5 67.5ZM67.5 134.5C104.503 134.5 134.5 104.503 134.5 67.5C134.5 30.4969 104.503 0.5 67.5 0.5C30.4969 0.5 0.5 30.4969 0.5 67.5C0.5 104.503 30.4969 134.5 67.5 134.5Z" fill="#159822" stroke="#159822"/>
<path fill-rule="evenodd" clip-rule="evenodd" d="M66 148L66 134L69 134L69 148L66 148Z" fill="#159822"/>
<path d="M71.1621 57.7378C71.1621 57.3419 71.4836 57.0205 71.8792 57.0205C72.2748 57.0205 72.5963 57.3419 72.5963 57.7378C72.5963 58.1337 72.2748 58.4551 71.8792 58.4551C71.4836 58.4551 71.1621 58.1337 71.1621 57.7378Z" fill="#159822" stroke="#159822"/>
<path d="M41.9492 63.8026V63.3408L41.4889 63.3042C38.6175 63.0755 36.3501 60.6662 36.3501 57.7375V50.434C36.3501 50.038 36.6712 49.7168 37.0673 49.7168H96.9535C97.3495 49.7168 97.6707 50.038 97.6707 50.434V57.7375C97.6707 60.6663 95.4032 63.0756 92.5319 63.3042L92.0715 63.3408V63.8026V69.91C92.0715 74.3883 90.8759 78.783 88.6149 82.6189C86.4201 86.3423 83.2823 89.4545 79.5416 91.6185L79.5442 91.6231L79.5409 91.6189C75.9019 93.7324 71.5599 94.9722 67.0104 94.9722C62.6194 94.9722 58.3018 93.8204 54.521 91.6423L54.5202 91.6418L54.5084 91.635L54.5049 91.6331L54.4646 91.6098L54.4636 91.6094C46.9641 87.2639 41.9492 79.1567 41.9492 69.91V63.8026ZM54.5325 91.65C54.5351 91.6517 54.5361 91.6524 54.5348 91.6515L54.5325 91.65ZM78.2023 90.7225L78.4652 90.5809V90.2823V79.648C78.4652 73.3311 73.327 68.1927 67.0104 68.1927C60.6937 68.1927 55.5556 73.3311 55.5556 79.648V90.2823V90.5809L55.8185 90.7225C59.241 92.566 63.0945 93.5377 67.0104 93.5377C70.9264 93.5377 74.7799 92.566 78.2023 90.7225ZM79.8996 88.7666V89.7366L80.6896 89.1738C86.8744 84.7684 90.6371 77.5764 90.6371 69.91V63.8238V63.3238H90.1371H43.8836H43.3836V63.8238V69.91C43.3836 77.5764 47.1464 84.7684 53.3311 89.1738L54.1212 89.7366V88.7666V79.648C54.1212 72.541 59.9037 66.7582 67.0104 66.7582C74.117 66.7582 79.8996 72.541 79.8996 79.648V88.7666ZM95.7363 57.0203H96.2363V56.5203V51.6513V51.1513H95.7363H38.2845H37.7845V51.6513V57.7375C37.7845 60.0272 39.6464 61.8893 41.9361 61.8893H41.9726H42.0098H42.0478H42.0865H42.126H42.1663H42.2072H42.249H42.2915H42.3347H42.3786H42.4233H42.4687H42.5148H42.5616H42.6092H42.6575H42.7065H42.7562H42.8066H42.8577H42.9095H42.962H43.0152H43.0691H43.1236H43.1789H43.2348H43.2915H43.3488H43.4067H43.4654H43.5247H43.5846H43.6453H43.7065H43.7685H43.8311H43.8943H43.9582H44.0227H44.0878H44.1536H44.2201H44.2871H44.3548H44.4231H44.492H44.5616H44.6317H44.7025H44.7739H44.8459H44.9184H44.9916H45.0654H45.1398H45.2147H45.2903H45.3664H45.4431H45.5204H45.5983H45.6767H45.7557H45.8352H45.9154H45.9961H46.0773H46.1591H46.2414H46.3243H46.4078H46.4917H46.5763H46.6613H46.7469H46.833H46.9196H47.0068H47.0944H47.1826H47.2713H47.3605H47.4503H47.5405H47.6312H47.7224H47.8141H47.9064H47.9991H48.0922H48.1859H48.28H48.3747H48.4698H48.5653H48.6613H48.7578H48.8548H48.9522H49.0501H49.1484H49.2472H49.3464H49.446H49.5461H49.6467H49.7476H49.849H49.9509H50.0531H50.1558H50.2589H50.3624H50.4663H50.5706H50.6753H50.7805H50.886H50.9919H51.0982H51.205H51.3121H51.4195H51.5274H51.6357H51.7443H51.8533H51.9626H52.0724H52.1825H52.2929H52.4037H52.5149H52.6264H52.7382H52.8505H52.963H53.0759H53.1891H53.3027H53.4165H53.5307H53.6453H53.7601H53.8753H53.9908H54.1066H54.2227H54.3391H54.4558H54.5728H54.6901H54.8077H54.9256H55.0438H55.1622H55.281H55.4H55.5193H55.6388H55.7586H55.8787H55.9991H56.1197H56.2406H56.3617H56.4831H56.6047H56.7265H56.8487H56.971H57.0936H57.2164H57.3394H57.4627H57.5862H57.7099H57.8338H57.9579H58.0822H58.2068H58.3315H58.4565H58.5816H58.707H58.8325H58.9582H59.0842H59.2103H59.3365H59.463H59.5896H59.7164H59.8433H59.9705H60.0978H60.2252H60.3528H60.4805H60.6084H60.7365H60.8647H60.993H61.1215H61.2501H61.3788H61.5076H61.6366H61.7657H61.8949H62.0243H62.1537H62.2833H62.4129H62.5427H62.6726H62.8025H62.9326H63.0627H63.1929H63.3233H63.4536H63.5841H63.7147H63.8453H63.976H64.1067H64.2376H64.3685H64.4994H64.6304H64.7614H64.8925H65.0237H65.1548H65.286H65.4173H65.5486H65.6799H65.8112H65.9426H66.074H66.2054H66.3368H66.4682H66.5997H66.7311H66.8625H66.994H67.1254H67.2568H67.3883H67.5197H67.651H67.7824H67.9138H68.0451H68.1764H68.3076H68.4389H68.57H68.7012H68.8323H68.9633H69.0943H69.2253H69.3562H69.487H69.6178H69.7485H69.8791H70.0097H70.1402H70.2706H70.401H70.5312H70.6614H70.7914H70.9214H71.0513H71.1811H71.3108H71.4404H71.5698H71.6992H71.8284H71.9576H72.0866H72.2154H72.3442H72.4728H72.6013H72.7297H72.8579H72.986H73.1139H73.2417H73.3693H73.4968H73.6241H73.7513H73.8783H74.0051H74.1318H74.2582H74.3846H74.5107H74.6366H74.7624H74.888H75.0134H75.1386H75.2636H75.3884H75.513H75.6373H75.7615H75.8855H76.0092H76.1328H76.2561H76.3792H76.502H76.6246H76.747H76.8692H76.9911H77.1128H77.2342H77.3554H77.4763H77.597H77.7174H77.8376H77.9574H78.0771H78.1964H78.3155H78.4343H78.5528H78.671H78.789H78.9067H79.024H79.1411H79.2579H79.3743H79.4905H79.6064H79.7219H79.8372H79.9521H80.0667H80.181H80.2949H80.4086H80.5219H80.6348H80.7474H80.8597H80.9717H81.0833H81.1945H81.3054H81.4159H81.5261H81.6359H81.7453H81.8544H81.9631H82.0715H82.1794H82.287H82.3942H82.501H82.6074H82.7134H82.819H82.9242H83.0291H83.1335H83.2375H83.3411H83.4443H83.547H83.6494H83.7513H83.8528H83.9538H84.0545H84.1547H84.2544H84.3537H84.4526H84.551H84.649H84.7465H84.8436H84.9402H85.0363H85.132H85.2272H85.3219H85.4161H85.5099H85.6032H85.696H85.7883H85.8802H85.9715H86.0623H86.1527H86.2425H86.3318H86.4206H86.5089H86.5967H86.684H86.7707H86.857H86.9427H87.0278H87.1125H87.1966H87.2801H87.3631H87.4456H87.5275H87.6089H87.6897H87.7699H87.8496H87.9288H88.0073H88.0853H88.1627H88.2396H88.3158H88.3915H88.4666H88.5411H88.615H88.6883H88.761H88.8331H88.9047H88.9756H89.0459H89.1155H89.1846H89.253H89.3209H89.3881H89.4546H89.5206H89.5859H89.6505H89.7146H89.7779H89.8407H89.9027H89.9642H90.0249H90.0851H90.1445H90.2033H90.2614H90.3189H90.3756H90.4317H90.4871H90.5419H90.5959H90.6493H90.7019H90.7539H90.8051H90.8557H90.9056H90.9547H91.0031H91.0509H91.0979H91.1442H91.1897H91.2346H91.2787H91.322H91.3647H91.4066H91.4477H91.4881H91.5278H91.5667H91.6049H91.6423H91.6789H91.7148H91.7499H91.7842H91.8178H91.8506H91.8826H91.9139H91.9443H91.974H92.0028H92.0309H92.0582H92.0847C93.8931 61.8893 95.4283 60.7165 95.9981 59.1097L96.2347 58.4426H95.5269H76.748C76.3453 58.4426 76.0308 58.1271 76.0308 57.7375C76.0308 57.3414 76.3519 57.0203 76.748 57.0203H95.7363Z" fill="#159822" stroke="#159822"/>
<path d="M58.9902 79.6476C58.9902 75.2254 62.5886 71.627 67.0106 71.627C71.4326 71.627 75.031 75.2254 75.031 79.6476C75.031 84.0697 71.4326 87.6682 67.0106 87.6682C62.5886 87.6682 58.9902 84.0697 58.9902 79.6476ZM60.4246 79.6476C60.4246 83.2796 63.3786 86.2337 67.0106 86.2337C70.6426 86.2337 73.5966 83.2796 73.5966 79.6476C73.5966 76.0155 70.6426 73.0614 67.0106 73.0614C63.3786 73.0614 60.4246 76.0155 60.4246 79.6476Z" fill="#159822" stroke="#159822"/>
<path d="M63.8589 79.6479C63.8589 77.9104 65.2732 76.4961 67.0105 76.4961C68.7478 76.4961 70.1621 77.9104 70.1621 79.6479C70.1621 81.3855 68.7478 82.7998 67.0105 82.7998C65.2732 82.7998 63.8589 81.3855 63.8589 79.6479ZM65.2933 79.6479C65.2933 80.5953 66.0632 81.3652 67.0105 81.3652C67.9578 81.3652 68.7277 80.5953 68.7277 79.6479C68.7277 78.7006 67.9578 77.9307 67.0105 77.9307C66.0632 77.9307 65.2933 78.7006 65.2933 79.6479Z" fill="#159822" stroke="#159822"/>
<path d="M106.072 94.3595C106.072 103.226 98.8849 110.413 90.019 110.413C81.1531 110.413 73.9658 103.226 73.9658 94.3595C73.9658 85.4932 81.1531 78.3057 90.019 78.3057C98.8849 78.3057 106.072 85.4932 106.072 94.3595Z" fill="white" stroke="#159822" stroke-width="2"/>
<path d="M97.3978 87.8831C96.8563 87.3907 96.014 87.4293 95.5191 87.9735L87.4028 96.911L83.4817 92.9247C82.9641 92.4004 82.1233 92.3924 81.6004 92.9087C81.0761 93.4236 81.0681 94.2659 81.5844 94.7901L86.4927 99.7798C86.7442 100.035 87.0848 100.178 87.4414 100.178C87.4493 100.178 87.4587 100.178 87.4666 100.179C87.8339 100.171 88.1798 100.014 88.426 99.7425L97.4882 89.7632C97.9819 89.2176 97.942 88.3767 97.3978 87.8831Z" fill="#159822"/>
</svg>
