<svg width="80" height="80" viewBox="0 0 80 80" fill="none" xmlns="http://www.w3.org/2000/svg">
<circle cx="40.0002" cy="40" r="37.9436" fill="white" stroke="#D1D1D1"/>
<circle cx="40.0002" cy="40" r="33.3186" stroke="#D1D1D1"/>
<path d="M77.3652 40C77.3652 60.6362 60.6362 77.3652 40 77.3652C19.3637 77.3652 2.63474 60.6362 2.63474 40C2.63474 19.3637 19.3637 2.63474 40 2.63474C60.6362 2.63474 77.3652 19.3637 77.3652 40ZM40 78.9433C61.5078 78.9433 78.9433 61.5078 78.9433 40C78.9433 18.4922 61.5078 1.05664 40 1.05664C18.4922 1.05664 1.05664 18.4922 1.05664 40C1.05664 61.5078 18.4922 78.9433 40 78.9433Z" fill="#159822" stroke="#159822"/>
<path d="M62.1395 41.204C59.0458 41.204 56.1741 39.6675 54.4577 37.0925L53.8419 36.1689L53.2261 37.0925C51.5098 39.6675 48.638 41.204 45.5443 41.204H42.7399V53.0728C42.7399 55.9415 44.0314 58.6378 46.1897 60.4474H30.8978V57.4869H40.5195V44.1645H24.9767V50.0856H20.5359V20.4803H53.1018V33.8027H54.582V19H19.0557V51.1321L29.8512 61.9277H48.4648L53.8419 65L60.096 61.4266C63.0862 59.7184 64.9439 56.5166 64.9439 53.0728V41.204H62.1395ZM29.4175 59.4009L21.5825 51.5658H29.4175V59.4009ZM26.457 50.0856V45.6448H39.0393V56.0066H30.8978V50.0856H26.457ZM63.4636 53.0728C63.4636 55.9874 61.8916 58.6955 59.3618 60.1418L53.8419 63.2962L48.322 60.1418C45.7922 58.6955 44.2202 55.9874 44.2202 53.0728V42.6843H45.5443C48.7861 42.6843 51.8176 41.2299 53.8419 38.7482C55.8662 41.2299 58.8978 42.6843 62.1395 42.6843H63.4636V53.0728Z" fill="#159822"/>
<path d="M60.5035 48.6055V53.0729C60.5035 54.9277 59.5029 56.6515 57.8931 57.5714L58.6273 58.8563C60.6974 57.6736 61.9838 55.4576 61.9838 53.0729V48.6055H60.5035Z" fill="#159822"/>
<path d="M23.4966 21.9604V26.4012H50.1414V21.9604H23.4966ZM48.6611 24.921H24.9768V23.4407H48.6611V24.921Z" fill="#159822"/>
<path d="M59.9801 44.3813L50.1415 54.2199L47.7043 51.7827L46.6577 52.8292L50.1415 56.313L61.0267 45.4279L59.9801 44.3813Z" fill="#159822"/>
<path d="M37.5592 47.125H27.9375V48.6053H37.5592V47.125Z" fill="#159822"/>
<path d="M37.5589 50.0854H32.3779V51.5657H37.5589V50.0854Z" fill="#159822"/>
<path d="M37.5589 53.0461H32.3779V54.5264H37.5589V53.0461Z" fill="#159822"/>
<path d="M47.1808 29.3618H23.4966V30.8421H47.1808V29.3618Z" fill="#159822"/>
<path d="M47.1808 32.3223H23.4966V33.8025H47.1808V32.3223Z" fill="#159822"/>
<path d="M47.1808 35.283H23.4966V36.7632H47.1808V35.283Z" fill="#159822"/>
<path d="M37.5591 38.2434H23.4966V39.7237H37.5591V38.2434Z" fill="#159822"/>
<path d="M37.5591 41.2039H23.4966V42.6841H37.5591V41.2039Z" fill="#159822"/>
<path d="M50.1414 29.3618H48.6611V30.8421H50.1414V29.3618Z" fill="#159822"/>
<path d="M50.1414 32.3223H48.6611V33.8025H50.1414V32.3223Z" fill="#159822"/>
<path d="M50.1414 35.283H48.6611V36.7632H50.1414V35.283Z" fill="#159822"/>
<path d="M40.5198 38.2434H39.0396V39.7237H40.5198V38.2434Z" fill="#159822"/>
<path d="M40.5198 41.2039H39.0396V42.6841H40.5198V41.2039Z" fill="#159822"/>
</svg>
